# xmcd CD database file
#
# Track frame offsets:
#	150
#	15001
#	28072
#	39566
#	56239
#	68537
#	77880
#	90281
#	100645
#	114108
#	123675
#	134311
#
# Disc length: 1921 seconds
#
# Revision: 0
# Processed by: cddbd v1.5.2PL0 Copyright (c) Steve Scherf et al.
# Submitted via: CDex 1.51
#
DISCID=8a077f0c
DTITLE=Willie Nelson - Face Of A Fighter
DYEAR=1900
DGENRE=Country
TTITLE0=Face Of A Fighter
TTITLE1=You'll Always Have Someone
TTITLE2=Touch Me
TTITLE3=I Let My Mind Wander
TTITLE4=The Shelter Of Your Arms
TTITLE5=Building Heartaches
TTITLE6=Any Old Arms Won't Do
TTITLE7=I Feel Sorry For Him
TTITLE8=Everything But You
TTITLE9=Half A Man
TTITLE10=Go Away
TTITLE11=Broken Promises
EXTD=
EXTT0=
EXTT1=
EXTT2=
EXTT3=
EXTT4=
EXTT5=
EXTT6=
EXTT7=
EXTT8=
EXTT9=
EXTT10=
EXTT11=
PLAYORDER=
